<svg width="207" height="43" viewBox="0 0 207 43" fill="none" xmlns="http://www.w3.org/2000/svg">
<path d="M46.4811 42C33.3508 29.3215 -4.5512 5.37952 0.452006 1.9449C14.4606 -7.67177 29.6218 20.3863 46.4811 42Z" fill="#135097"/>
<path d="M36.8783 39.8005C46.694 30.3226 81.8666 18.7835 77.651 15.8897C64.4204 6.80781 49.4816 23.643 36.8783 39.8005Z" fill="#C93A3A"/>
<path d="M189.508 37.3667C189.508 38.993 189.018 40.2007 188.038 40.9899C187.081 41.803 185.574 42.2096 183.518 42.2096H177.271C176.719 42.2096 176.271 41.7619 176.271 41.2096V40.5191C176.271 39.9668 176.719 39.5191 177.271 39.5191H183.876C184.737 39.5191 185.383 39.3517 185.813 39.0169C186.244 38.6821 186.459 38.2516 186.459 37.7254V36.5775C186.459 36.0274 186.244 35.597 185.813 35.2861C185.383 34.9512 184.737 34.7838 183.876 34.7838H178.885C178.333 34.7838 177.885 34.3361 177.885 33.7838V30.427C177.885 30.061 177.679 29.7324 177.385 29.5148C176.844 29.1143 176.424 28.5987 176.128 27.9679C175.745 27.1548 175.554 26.1025 175.554 24.8111V23.9143C175.554 21.9054 176.044 20.4465 177.024 19.5377C178.029 18.6289 179.571 18.1745 181.652 18.1745H187.97C188.523 18.1745 188.97 18.6223 188.97 19.1745V24.8111C188.97 26.6047 188.48 28.0158 187.499 29.0441C186.519 30.0486 185.216 30.5508 183.589 30.5508H181.706C181.28 30.5508 180.935 30.8961 180.935 31.3221C180.935 31.748 181.28 32.0933 181.706 32.0933H183.518C185.574 32.0933 187.081 32.4999 188.038 33.313C189.018 34.1022 189.508 35.31 189.508 36.9362V37.3667ZM183.589 27.8603C184.331 27.8603 184.893 27.6212 185.275 27.1428C185.658 26.6645 185.873 26.1623 185.921 25.6362V21.865C185.921 21.3127 185.473 20.865 184.921 20.865H181.293C180.409 20.865 179.739 21.0683 179.285 21.4749C178.83 21.8814 178.603 22.4554 178.603 23.1968V25.5286C178.603 26.2699 178.83 26.8439 179.285 27.2505C179.739 27.657 180.409 27.8603 181.293 27.8603H183.589Z" fill="#332D2D"/>
<path d="M151.708 36.1112C151.155 36.1112 150.708 35.6635 150.708 35.1112V17.7347C150.708 16.6844 149.296 16.3443 148.817 17.2794L147.492 19.8721C147.321 20.2064 146.977 20.4168 146.601 20.4168H144.785C144.436 20.4168 144.113 20.2353 143.931 19.9377L141.907 16.6205C141.381 15.7581 140.053 16.1311 140.053 17.1414V35.1112C140.053 35.6635 139.606 36.1112 139.053 36.1112H138.184C137.631 36.1112 137.184 35.6635 137.184 35.1112V12C137.184 11.4477 137.631 11 138.184 11H141.663C142.021 11 142.352 11.1915 142.53 11.502L144.789 15.4349C145.186 16.1272 146.195 16.0974 146.551 15.3828L148.459 11.554C148.628 11.2146 148.974 11 149.354 11H152.685C153.237 11 153.685 11.4477 153.685 12V35.1112C153.685 35.6635 153.237 36.1112 152.685 36.1112H151.708Z" fill="#332D2D"/>
<path d="M125.836 37.6896C125.549 38.7658 125.25 39.6267 124.939 40.2724C124.628 40.9421 124.186 41.4563 123.612 41.815C123.062 42.1976 122.32 42.389 121.388 42.389C121.061 42.389 120.659 42.3586 120.181 42.298C119.696 42.2365 119.343 41.8154 119.343 41.3266V40.708C119.343 40.0994 119.882 39.6367 120.489 39.6751C120.737 39.6907 120.976 39.6985 121.208 39.6985C121.878 39.6985 122.356 39.1604 122.643 38.0842L123.128 36.4186C123.186 36.2186 123.18 36.0055 123.111 35.8089L117.405 19.5049C117.177 18.8547 117.66 18.1745 118.349 18.1745H119.482C119.93 18.1745 120.323 18.4727 120.445 18.9041L123.357 29.2725C123.636 30.2661 125.054 30.2371 125.292 29.233L127.734 18.9437C127.841 18.4928 128.244 18.1745 128.707 18.1745H129.736C130.393 18.1745 130.871 18.7973 130.702 19.4321L125.836 37.6896Z" fill="#332D2D"/>
<path d="M110.346 35C110.323 35.0242 110.299 35.046 110.273 35.0676C109.458 35.749 109.019 36.1111 108.124 36.1111H105.649C103.831 36.1111 102.504 35.7524 101.667 35.035C100.854 34.2936 100.447 33.038 100.447 31.2683V30.5508C100.447 26.8439 102.193 24.9905 105.685 24.9905H108.416C108.968 24.9905 109.416 24.5427 109.416 23.9905V23.1968C109.416 22.4554 109.188 21.8814 108.734 21.4749C108.28 21.0683 107.61 20.865 106.725 20.865H102.882C102.33 20.865 101.882 20.4173 101.882 19.865V19.1745C101.882 18.6223 102.33 18.1745 102.882 18.1745H106.366C108.447 18.1745 109.978 18.6289 110.958 19.5377C111.962 20.4457 112.464 21.9029 112.465 23.9091C112.465 23.9125 112.465 23.912 112.465 23.9154C112.466 24.0248 112.548 32.1319 112.465 32.5238C112.388 32.8885 110.615 34.7235 110.346 35ZM107.765 33.4207C108.483 33.4207 108.937 33.2533 109.129 32.9184C109.32 32.5836 109.416 32.1531 109.416 31.627V28.6809C109.416 28.1287 108.968 27.6809 108.416 27.6809H105.649C105.027 27.6809 104.513 27.8842 104.106 28.2908C103.7 28.6974 103.497 29.2115 103.497 29.8333V31.627C103.497 32.2488 103.64 32.7032 103.927 32.9902C104.214 33.2772 104.668 33.4207 105.29 33.4207H107.765Z" fill="#332D2D"/>
<path d="M168.322 35C168.299 35.0242 168.275 35.046 168.249 35.0676C167.433 35.749 166.995 36.1111 166.1 36.1111H163.625C161.807 36.1111 160.48 35.7524 159.643 35.035C158.83 34.2936 158.423 33.038 158.423 31.2683V30.5508C158.423 26.8439 160.169 24.9905 163.661 24.9905H166.392C166.944 24.9905 167.392 24.5427 167.392 23.9905V23.1968C167.392 22.4554 167.164 21.8814 166.71 21.4749C166.256 21.0683 165.586 20.865 164.701 20.865H160.858C160.306 20.865 159.858 20.4173 159.858 19.865V19.1745C159.858 18.6223 160.306 18.1745 160.858 18.1745H164.342C166.423 18.1745 167.954 18.6289 168.934 19.5377C169.938 20.4457 170.44 21.9029 170.441 23.9091C170.441 23.9125 170.441 23.912 170.441 23.9154C170.442 24.0248 170.524 32.1319 170.441 32.5238C170.363 32.8885 168.591 34.7235 168.322 35ZM165.741 33.4207C166.459 33.4207 166.913 33.2533 167.105 32.9184C167.296 32.5836 167.392 32.1531 167.392 31.627V28.6809C167.392 28.1287 166.944 27.6809 166.392 27.6809H163.625C163.003 27.6809 162.489 27.8842 162.082 28.2908C161.676 28.6974 161.472 29.2115 161.472 29.8333V31.627C161.472 32.2488 161.616 32.7032 161.903 32.9902C162.19 33.2772 162.644 33.4207 163.266 33.4207H165.741Z" fill="#332D2D"/>
<path d="M204.196 35C204.172 35.0242 204.149 35.046 204.123 35.0676C203.307 35.749 202.868 36.1111 201.973 36.1111H199.498C197.681 36.1111 196.353 35.7524 195.516 35.035C194.703 34.2936 194.297 33.038 194.297 31.2683V30.5508C194.297 26.8439 196.042 24.9905 199.534 24.9905H202.265C202.817 24.9905 203.265 24.5427 203.265 23.9905V23.1968C203.265 22.4554 203.038 21.8814 202.583 21.4749C202.129 21.0683 201.459 20.865 200.574 20.865H196.732C196.179 20.865 195.732 20.4173 195.732 19.865V19.1745C195.732 18.6223 196.179 18.1745 196.732 18.1745H200.216C202.296 18.1745 203.827 18.6289 204.807 19.5377C205.811 20.4457 206.313 21.9029 206.314 23.9091C206.314 23.9125 206.314 23.912 206.314 23.9154C206.315 24.0248 206.397 32.1319 206.314 32.5238C206.237 32.8885 204.464 34.7235 204.196 35ZM201.615 33.4207C202.332 33.4207 202.787 33.2533 202.978 32.9184C203.169 32.5836 203.265 32.1531 203.265 31.627V28.6809C203.265 28.1287 202.817 27.6809 202.265 27.6809H199.498C198.876 27.6809 198.362 27.8842 197.956 28.2908C197.549 28.6974 197.346 29.2115 197.346 29.8333V31.627C197.346 32.2488 197.489 32.7032 197.776 32.9902C198.063 33.2772 198.518 33.4207 199.139 33.4207H201.615Z" fill="#332D2D"/>
<path d="M96.1296 30.4433C96.1296 32.5 95.6513 33.9589 94.6947 34.8198C93.762 35.6808 92.2075 36.1112 90.0312 36.1112H84C83.4477 36.1112 83 35.6635 83 35.1112V12C83 11.4477 83.4477 11 84 11H89.6007C91.7531 11 93.3793 11.4424 94.4794 12.3273C95.5795 13.1883 96.1296 14.6112 96.1296 16.5962V30.4433ZM93.0086 16.2734C93.0086 15.4842 92.7695 14.8623 92.2912 14.408C91.8129 13.9296 91.1791 13.6905 90.3899 13.6905H87.121C86.5687 13.6905 86.121 14.1382 86.121 14.6905V32.4208C86.121 32.973 86.5687 33.4208 87.121 33.4208H90.354C91.2628 33.4208 91.9324 33.2175 92.3629 32.8109C92.7934 32.3804 93.0086 31.7108 93.0086 30.802V16.2734Z" fill="#332D2D"/>
</svg>
